# xmcd
#
# Track frame offsets: 
#        150
#        20428
#        37423
#        56689
#        73762
#        95479
#        114493
#        135773
#        154248
#        177036
#        195701
#        228128
#
# Disc length: 3670 seconds
#
# Revision: 5
# Processed by: cddbd v1.5.2PL0 Copyright (c) Steve Scherf et al.
# Submitted via: ExactAudioCopy v1.0b3
#
DISCID=9d0e540c
DTITLE=Kasia Kowalska - 5
DYEAR=2000
DGENRE=Rock
TTITLE0=Żyję raz
TTITLE1=Będę jak
TTITLE2=Być tak blisko
TTITLE3=Znaleźć siłę
TTITLE4=Nobody
TTITLE5=Z kim chciałbyś być
TTITLE6=Bądź pewny
TTITLE7=Gra rozkoszy
TTITLE8=Moje Katmandu
TTITLE9=Czekam, boję się
TTITLE10=Wszystko jest żartem
TTITLE11=Prezentacja
EXTD=
EXTT0=
EXTT1=
EXTT2=
EXTT3=
EXTT4=
EXTT5=
EXTT6=
EXTT7=
EXTT8=
EXTT9=
EXTT10=
EXTT11=
PLAYORDER=
